<?xml version="1.0" encoding="UTF-8" standalone="no"?>
<!DOCTYPE svg PUBLIC "-//W3C//DTD SVG 1.1//EN"
 "http://www.w3.org/Graphics/SVG/1.1/DTD/svg11.dtd">
<!-- Generated by graphviz version 2.42.3 ()
 -->
<!-- Title: perl6&#45;type&#45;graph Pages: 1 -->
<svg width="4017pt" height="116pt"
 viewBox="0.00 0.00 4016.62 116.00" xmlns="http://www.w3.org/2000/svg" xmlns:xlink="http://www.w3.org/1999/xlink">
<g id="graph0" class="graph" transform="scale(1 1) rotate(0) translate(4 112)">
<title>perl6&#45;type&#45;graph</title>
<polygon fill="white" stroke="transparent" points="-4,4 -4,-112 4012.62,-112 4012.62,4 -4,4"/>
<!-- Documentable::DocPage -->
<g id="node1" class="node">
<title>Documentable::DocPage</title>
<g id="a_node1"><a xlink:href="/type/Documentable::DocPage" xlink:title="Documentable::DocPage">
<ellipse fill="none" stroke="#6666ff" cx="1960.53" cy="-90" rx="113.18" ry="18"/>
<text text-anchor="middle" x="1960.53" y="-86.3" font-family="FreeSans" font-size="14.00" fill="#6666ff">Documentable::DocPage</text>
</a>
</g>
</g>
<!-- Documentable::DocPage::Primary::Type -->
<g id="node2" class="node">
<title>Documentable::DocPage::Primary::Type</title>
<g id="a_node2"><a xlink:href="/type/Documentable::DocPage::Primary::Type" xlink:title="Documentable::DocPage::Primary::Type">
<ellipse fill="none" stroke="#000000" cx="186.53" cy="-18" rx="186.57" ry="18"/>
<text text-anchor="middle" x="186.53" y="-14.3" font-family="FreeSans" font-size="14.00" fill="#000000">Documentable::DocPage::Primary::Type</text>
</a>
</g>
</g>
<!-- Documentable::DocPage::Primary::Type&#45;&gt;Documentable::DocPage -->
<g id="edge1" class="edge">
<title>Documentable::DocPage::Primary::Type&#45;&gt;Documentable::DocPage</title>
<path fill="none" stroke="#000000" d="M320.25,-30.6C354.83,-33.6 382.53,-36 382.53,-36 382.53,-36 1473.1,-72.63 1840.99,-84.99"/>
<polygon fill="#000000" stroke="#000000" points="1841.02,-88.49 1851.14,-85.33 1841.26,-81.49 1841.02,-88.49"/>
</g>
<!-- Documentable::DocPage::Index::Routine -->
<g id="node3" class="node">
<title>Documentable::DocPage::Index::Routine</title>
<g id="a_node3"><a xlink:href="/type/Documentable::DocPage::Index::Routine" xlink:title="Documentable::DocPage::Index::Routine">
<ellipse fill="none" stroke="#000000" cx="582.53" cy="-18" rx="191.17" ry="18"/>
<text text-anchor="middle" x="582.53" y="-14.3" font-family="FreeSans" font-size="14.00" fill="#000000">Documentable::DocPage::Index::Routine</text>
</a>
</g>
</g>
<!-- Documentable::DocPage::Index::Routine&#45;&gt;Documentable::DocPage -->
<g id="edge2" class="edge">
<title>Documentable::DocPage::Index::Routine&#45;&gt;Documentable::DocPage</title>
<path fill="none" stroke="#000000" d="M719.25,-30.62C754.41,-33.61 782.53,-36 782.53,-36 782.53,-36 1544.82,-70.3 1842.99,-83.71"/>
<polygon fill="#000000" stroke="#000000" points="1843.25,-87.23 1853.39,-84.18 1843.56,-80.23 1843.25,-87.23"/>
</g>
<!-- Documentable::DocPage::Secondary -->
<g id="node4" class="node">
<title>Documentable::DocPage::Secondary</title>
<g id="a_node4"><a xlink:href="/type/Documentable::DocPage::Secondary" xlink:title="Documentable::DocPage::Secondary">
<ellipse fill="none" stroke="#000000" cx="958.53" cy="-18" rx="167.07" ry="18"/>
<text text-anchor="middle" x="958.53" y="-14.3" font-family="FreeSans" font-size="14.00" fill="#000000">Documentable::DocPage::Secondary</text>
</a>
</g>
</g>
<!-- Documentable::DocPage::Secondary&#45;&gt;Documentable::DocPage -->
<g id="edge3" class="edge">
<title>Documentable::DocPage::Secondary&#45;&gt;Documentable::DocPage</title>
<path fill="none" stroke="#000000" d="M1078.36,-30.57C1109.52,-33.58 1134.53,-36 1134.53,-36 1134.53,-36 1621.1,-67.22 1847.35,-81.74"/>
<polygon fill="#000000" stroke="#000000" points="1847.39,-85.25 1857.59,-82.39 1847.83,-78.26 1847.39,-85.25"/>
</g>
<!-- Documentable::DocPage::Index::Language -->
<g id="node5" class="node">
<title>Documentable::DocPage::Index::Language</title>
<g id="a_node5"><a xlink:href="/type/Documentable::DocPage::Index::Language" xlink:title="Documentable::DocPage::Index::Language">
<ellipse fill="none" stroke="#000000" cx="1339.53" cy="-18" rx="196.07" ry="18"/>
<text text-anchor="middle" x="1339.53" y="-14.3" font-family="FreeSans" font-size="14.00" fill="#000000">Documentable::DocPage::Index::Language</text>
</a>
</g>
</g>
<!-- Documentable::DocPage::Index::Language&#45;&gt;Documentable::DocPage -->
<g id="edge4" class="edge">
<title>Documentable::DocPage::Index::Language&#45;&gt;Documentable::DocPage</title>
<path fill="none" stroke="#000000" d="M1458.17,-32.37C1574.92,-45.53 1751.2,-65.4 1860.91,-77.77"/>
<polygon fill="#000000" stroke="#000000" points="1860.65,-81.26 1870.98,-78.91 1861.44,-74.31 1860.65,-81.26"/>
</g>
<!-- Documentable::DocPage::Index::Programs -->
<g id="node6" class="node">
<title>Documentable::DocPage::Index::Programs</title>
<g id="a_node6"><a xlink:href="/type/Documentable::DocPage::Index::Programs" xlink:title="Documentable::DocPage::Index::Programs">
<ellipse fill="none" stroke="#000000" cx="1750.53" cy="-18" rx="196.07" ry="18"/>
<text text-anchor="middle" x="1750.53" y="-14.3" font-family="FreeSans" font-size="14.00" fill="#000000">Documentable::DocPage::Index::Programs</text>
</a>
</g>
</g>
<!-- Documentable::DocPage::Index::Programs&#45;&gt;Documentable::DocPage -->
<g id="edge5" class="edge">
<title>Documentable::DocPage::Index::Programs&#45;&gt;Documentable::DocPage</title>
<path fill="none" stroke="#000000" d="M1800.03,-35.5C1831.35,-45.94 1871.92,-59.46 1904.43,-70.3"/>
<polygon fill="#000000" stroke="#000000" points="1903.65,-73.73 1914.24,-73.57 1905.86,-67.09 1903.65,-73.73"/>
</g>
<!-- Documentable::DocPage::Primary::Programs -->
<g id="node7" class="node">
<title>Documentable::DocPage::Primary::Programs</title>
<g id="a_node7"><a xlink:href="/type/Documentable::DocPage::Primary::Programs" xlink:title="Documentable::DocPage::Primary::Programs">
<ellipse fill="none" stroke="#000000" cx="2170.53" cy="-18" rx="206.06" ry="18"/>
<text text-anchor="middle" x="2170.53" y="-14.3" font-family="FreeSans" font-size="14.00" fill="#000000">Documentable::DocPage::Primary::Programs</text>
</a>
</g>
</g>
<!-- Documentable::DocPage::Primary::Programs&#45;&gt;Documentable::DocPage -->
<g id="edge6" class="edge">
<title>Documentable::DocPage::Primary::Programs&#45;&gt;Documentable::DocPage</title>
<path fill="none" stroke="#000000" d="M2121.03,-35.5C2089.71,-45.94 2049.15,-59.46 2016.64,-70.3"/>
<polygon fill="#000000" stroke="#000000" points="2015.21,-67.09 2006.83,-73.57 2017.42,-73.73 2015.21,-67.09"/>
</g>
<!-- Documentable::DocPage::SubIndex::Routine -->
<g id="node8" class="node">
<title>Documentable::DocPage::SubIndex::Routine</title>
<g id="a_node8"><a xlink:href="/type/Documentable::DocPage::SubIndex::Routine" xlink:title="Documentable::DocPage::SubIndex::Routine">
<ellipse fill="none" stroke="#000000" cx="2600.53" cy="-18" rx="206.06" ry="18"/>
<text text-anchor="middle" x="2600.53" y="-14.3" font-family="FreeSans" font-size="14.00" fill="#000000">Documentable::DocPage::SubIndex::Routine</text>
</a>
</g>
</g>
<!-- Documentable::DocPage::SubIndex::Routine&#45;&gt;Documentable::DocPage -->
<g id="edge7" class="edge">
<title>Documentable::DocPage::SubIndex::Routine&#45;&gt;Documentable::DocPage</title>
<path fill="none" stroke="#000000" d="M2477.51,-32.46C2356.44,-45.7 2173.81,-65.67 2061.14,-78"/>
<polygon fill="#000000" stroke="#000000" points="2060.69,-74.52 2051.13,-79.09 2061.45,-81.48 2060.69,-74.52"/>
</g>
<!-- Documentable::DocPage::Primary::Language -->
<g id="node9" class="node">
<title>Documentable::DocPage::Primary::Language</title>
<g id="a_node9"><a xlink:href="/type/Documentable::DocPage::Primary::Language" xlink:title="Documentable::DocPage::Primary::Language">
<ellipse fill="none" stroke="#000000" cx="3030.53" cy="-18" rx="206.06" ry="18"/>
<text text-anchor="middle" x="3030.53" y="-14.3" font-family="FreeSans" font-size="14.00" fill="#000000">Documentable::DocPage::Primary::Language</text>
</a>
</g>
</g>
<!-- Documentable::DocPage::Primary::Language&#45;&gt;Documentable::DocPage -->
<g id="edge8" class="edge">
<title>Documentable::DocPage::Primary::Language&#45;&gt;Documentable::DocPage</title>
<path fill="none" stroke="#000000" d="M2883.56,-30.62C2845.77,-33.61 2815.53,-36 2815.53,-36 2815.53,-36 2306.32,-67.57 2073.85,-81.98"/>
<polygon fill="#000000" stroke="#000000" points="2073.43,-78.49 2063.67,-82.61 2073.86,-85.48 2073.43,-78.49"/>
</g>
<!-- Documentable::DocPage::Index::Type -->
<g id="node10" class="node">
<title>Documentable::DocPage::Index::Type</title>
<g id="a_node10"><a xlink:href="/type/Documentable::DocPage::Index::Type" xlink:title="Documentable::DocPage::Index::Type">
<ellipse fill="none" stroke="#000000" cx="3431.53" cy="-18" rx="176.57" ry="18"/>
<text text-anchor="middle" x="3431.53" y="-14.3" font-family="FreeSans" font-size="14.00" fill="#000000">Documentable::DocPage::Index::Type</text>
</a>
</g>
</g>
<!-- Documentable::DocPage::Index::Type&#45;&gt;Documentable::DocPage -->
<g id="edge9" class="edge">
<title>Documentable::DocPage::Index::Type&#45;&gt;Documentable::DocPage</title>
<path fill="none" stroke="#000000" d="M3304.9,-30.57C3271.96,-33.58 3245.53,-36 3245.53,-36 3245.53,-36 2396.29,-71.03 2078.59,-84.13"/>
<polygon fill="#000000" stroke="#000000" points="2078.28,-80.64 2068.43,-84.55 2078.57,-87.63 2078.28,-80.64"/>
</g>
<!-- Documentable::DocPage::SubIndex::Type -->
<g id="node11" class="node">
<title>Documentable::DocPage::SubIndex::Type</title>
<g id="a_node11"><a xlink:href="/type/Documentable::DocPage::SubIndex::Type" xlink:title="Documentable::DocPage::SubIndex::Type">
<ellipse fill="none" stroke="#000000" cx="3817.53" cy="-18" rx="191.17" ry="18"/>
<text text-anchor="middle" x="3817.53" y="-14.3" font-family="FreeSans" font-size="14.00" fill="#000000">Documentable::DocPage::SubIndex::Type</text>
</a>
</g>
</g>
<!-- Documentable::DocPage::SubIndex::Type&#45;&gt;Documentable::DocPage -->
<g id="edge10" class="edge">
<title>Documentable::DocPage::SubIndex::Type&#45;&gt;Documentable::DocPage</title>
<path fill="none" stroke="#000000" d="M3680.81,-30.62C3645.66,-33.61 3617.53,-36 3617.53,-36 3617.53,-36 2461.12,-72.99 2080.43,-85.17"/>
<polygon fill="#000000" stroke="#000000" points="2080.1,-81.67 2070.22,-85.49 2080.32,-88.67 2080.1,-81.67"/>
</g>
</g>
</svg>
